<?xml version="1.0" encoding="UTF-8"?>
<svg width="1174px" height="773px" viewBox="0 0 1174 773" version="1.1" xmlns="http://www.w3.org/2000/svg" xmlns:xlink="http://www.w3.org/1999/xlink">
    <!-- Generator: Sketch 58 (84663) - https://sketch.com -->
    <title>Artboard with pwople</title>
    <desc>Created with Sketch.</desc>
    <defs>
        <filter x="-18.2%" y="-18.2%" width="136.4%" height="136.4%" filterUnits="objectBoundingBox" id="filter-1">
            <feGaussianBlur stdDeviation="10" in="SourceGraphic"></feGaussianBlur>
        </filter>
    </defs>
    <g id="Artboard-with-pwople" stroke="none" stroke-width="1" fill="none" fill-rule="evenodd">
        <g id="People" transform="translate(210.000000, 103.000000)">
            <g id="Group" transform="translate(231.923813, 18.000000)" stroke="#FFFFFF">
                <circle id="Oval" stroke-width="12" filter="url(#filter-1)" cx="82.5" cy="82.5" r="76.5"></circle>
                <circle id="Oval-Copy" stroke-width="10" cx="82.5" cy="82.5" r="77.5"></circle>
            </g>
            <g id="A-Human/Standing" transform="translate(554.219588, 283.000000) scale(-1, 1) translate(-554.219588, -283.000000) translate(354.923813, 0.000000)">
                <g id="Head/Front/Short-Beard" transform="translate(109.060000, 0.000000)">
                    <g id="Head" stroke-width="1" transform="translate(71.867647, 41.134615)" fill="#D4A181">
                        <path d="M50.7642999,12.1200264 C58.4765113,26.4522841 57.5601001,62.8072445 47.5927541,65.3688187 C43.6178134,66.390365 35.1500341,63.8880062 26.5317855,58.7088812 L31.9411765,96.8653846 L0,96.8653846 L10.9955696,45.7651075 C4.86328317,38.5882278 0.712887436,29.7929489 1.40644497,19.9376215 C3.40483654,-8.45916192 43.0520886,-2.21223137 50.7642999,12.1200264 Z"></path>
                    </g>
                    <path d="M105.31546,39.3042196 C114.277492,40.0706403 122.280157,42.7952772 124.548177,44.4133719 C124.548177,52.8728041 122.904151,55.3826928 108.861925,55.1614554 C105.411713,56.9781572 102.759321,60.1064428 99.9967101,64.2077065 C101.218533,81.1882608 104.452865,89.6796897 109.699031,89.6796897 C117.568281,89.6796897 124.24478,84.6988857 127.697618,84.6988857 C130.21462,84.6988857 129.65265,87.8393096 127.98425,90.1677106 C126.607766,92.0887165 119.904405,93.9403364 119.904405,96.9185405 C119.904405,99.8967445 125.200616,97.5926722 125.200616,99.3589868 C125.200616,102.280687 126.131418,107.774005 121.045379,107.774005 C115.898139,107.774005 101.140088,105.903832 98.6109582,98.2871457 C96.9788361,93.3718738 95.923515,83.1868485 95.4449948,67.7320697 C95.1332952,67.6921449 94.8152045,67.6730769 94.4926471,67.6730769 C90.0824909,67.6730769 86.5073529,71.2375791 86.5073529,75.6346154 C86.5073529,77.8667896 87.428712,79.8844091 88.9129428,81.3300531 C87.065254,83.9302945 84.9945249,86.6465949 82.6216905,89.4494639 C73.707466,84.1172022 67.0926044,68.5076735 75.8077058,53.5125232 C78.2165873,46.1666322 83.6699578,42.2429157 90.1105197,40.4210082 C95.3277067,38.2451347 100.743641,37.999803 105.31546,39.3042196 Z" id="Hair" fill="#191847"></path>
                </g>
                <g id="Bottom/Standing/Skinny-Jeans-Walk" transform="translate(0.000000, 248.455399)">
                    <polygon id="Leg" fill="#1F28CF" points="170.24 0 234.188581 169.280992 279.011828 294.050209 304.57 294.050209 242.956005 1.30584525e-13"></polygon>
                    <path d="M154.435115,0 C153.739992,58.0838161 154.242538,136.284247 152.622914,139.904896 C151.543165,142.318663 117.95886,169.820389 51.87,222.410074 L65.0436238,244.820084 C143.506309,194.2006 184.743384,165.518786 188.754846,158.774643 C194.772041,148.658427 225.001952,55.5676885 240.73,0 L154.435115,0 Z" id="Leg" fill="#2B44FF"></path>
                    <g id="Accessories/Shoe/Flat-Pointy" transform="translate(75.145000, 251.472803) rotate(50.000000) translate(-75.145000, -251.472803) translate(34.580000, 224.861925)" fill="#191847">
                        <path d="M0,53 L1.32786885,25.175 L29.2131148,25.175 C42.435506,34.45 59.6978011,41.9583333 81,47.7 L81,53 L30.5409836,53 L13.2786885,50.35 L13.2786885,53 L0,53 Z" id="Shoe"></path>
                    </g>
                    <g id="Accessories/Shoe/Flat-Pointy" transform="translate(276.640000, 264.778243)" fill="#191847">
                        <path d="M0,53 L1.32786885,25.175 L29.2131148,25.175 C42.435506,34.45 59.6978011,41.9583333 81,47.7 L81,53 L30.5409836,53 L13.2786885,50.35 L13.2786885,53 L0,53 Z" id="Shoe"></path>
                    </g>
                </g>
                <g id="Body/Pointing-Up" transform="translate(29.260000, 108.948357)">
                    <path d="M249.829417,91.7309896 L292.194308,122.795441 C303.684539,125.891434 313.284255,129.743371 320.993458,134.351254 C322.814505,136.008219 325.015412,139.363848 317.463088,138.783911 C309.910764,138.203975 301.940732,137.933133 300.898658,140.505386 C299.856584,143.07764 304.426842,146.153773 302.320357,149.624416 C300.916033,151.938179 294.281445,146.136505 282.416591,132.219397 L240.464235,114.847987 L249.829417,91.7309896 Z M332.61337,-22.5149303 C327.604439,-16.8411184 322.591337,-10.6481755 324.021471,-8.26912167 C325.451605,-5.89006789 330.662323,-7.68349309 332.170405,-3.91492805 C333.175792,-1.40255137 324.542861,0.39686542 306.27161,1.4833223 L267.130523,24.4851069 L254.277822,3.10440656 L304.618775,-11.9856884 C314.009921,-19.2857015 322.867927,-24.6231284 331.192792,-27.9979691 C333.613954,-28.4530312 337.622301,-28.1887422 332.61337,-22.5149303 Z" id="Skin" fill="#D4A181"></path>
                    <path d="M168.676241,20.7712132 C202.078226,56.2915952 242.824722,79.4633545 298.4005,100.009527 L286.04823,124.665011 C228.701074,119.285335 198.042769,114.983316 174.020018,79.4047348 C167.990794,70.4752322 157.215532,39.7468829 150.759469,23.7899156 L168.676241,20.7712132 Z" id="Coat-Back" fill="#69A1AC" transform="translate(224.579985, 72.718112) rotate(15.000000) translate(-224.579985, -72.718112) "></path>
                    <path d="M119.53125,151.187166 L221.796875,151.187166 C198.631999,80.6402915 186.7985,32.2213026 186.29638,5.93019918 C186.270782,4.58985333 183.791753,2.22797461 182.694976,2.53728365 C174.674367,4.79922734 166.091682,3.95346612 156.946922,0 C132.70291,38.9352133 124.31891,86.8723443 119.53125,151.187166 Z" id="Shirt" fill="#F2F2F2"></path>
                    <path d="M297.397303,-11.9358289 L302.8125,15.0835461 C261.356751,41.7072452 219.379322,62.3310917 182.59684,59.4014755 C198.571232,127.814323 197.835223,183.819677 162.572424,183.819677 L162.572424,183.819677 L108.044465,183.819677 C99.3841668,125.702775 122.145126,45.1222276 143.24619,4.47805017 C144.051976,2.92597146 145.767576,-4.84945417e-13 149.808516,-4.84945417e-13 L149.808516,-4.84945417e-13 L165.652733,-4.84945417e-13 C165.659716,0.0209957015 165.666698,0.0419913851 165.673679,0.0629870499 C194.986378,0.302402999 242.546761,5.64808059 297.397303,-11.9358289 Z" id="Coat-Front" fill="#89C5CC"></path>
                </g>
            </g>
            <g id="humaaan-11" transform="translate(0.000000, 38.000000)">
                <g id="Head/Front/Wavy" transform="translate(143.073241, 79.095678) rotate(-15.000000) translate(-143.073241, -79.095678) translate(63.975840, 18.610748)">
                    <g id="Head" stroke-width="1" transform="translate(62.661865, 36.221307)" fill="#D4A181">
                        <path d="M44.2617204,10.6723546 C50.9860471,23.2927014 50.1870223,55.3052577 41.4964291,57.5608657 C38.0304974,58.4604341 30.6468799,56.2567309 23.132225,51.695809 L27.8497177,85.2953366 L0,85.2953366 L9.58730059,40.2989397 C4.24041483,33.9792579 0.621563893,26.2344459 1.22628844,17.5561801 C2.96869893,-7.44876063 37.5373936,-1.94799226 44.2617204,10.6723546 Z"></path>
                    </g>
                    <path d="M109.552778,52.5601932 C109.276913,50.9243341 108.602716,49.1077303 108.058719,47.5600539 C107.357368,45.564895 106.295989,43.7660073 105.127969,42.0706299 C102.928962,38.878734 100.290981,35.9963733 97.3783933,33.6040936 C92.0581919,29.2343712 85.285833,26.7138981 78.62605,27.5324248 C75.2635187,27.9456693 71.9993564,29.237158 69.2211049,31.3867859 C66.7109856,33.3289954 64.2965377,36.1880662 61.0462227,36.3934941 C57.5096123,36.6168373 54.2677494,33.4737106 51.4314116,31.5324964 C48.2334282,29.3440522 44.8313335,27.7493981 41.093669,27.1295313 C34.8322177,26.0914435 28.9500358,28.2215638 24.6347453,33.3942864 C20.0426907,38.8988388 16.7046168,46.9712401 19.7202488,54.2647273 C20.2807906,55.6205117 21.0019239,56.7635031 22.0368671,57.7108203 C22.9860296,58.5795097 24.4356694,59.5037363 24.8205136,60.8917681 C25.2292757,62.3671864 24.0082046,64.2705795 23.5347023,65.6018798 C22.8563695,67.5092541 22.2994244,69.51138 22.4974213,71.5845696 C22.8227406,74.9892586 24.9476561,78.2394785 27.1914417,80.4772892 C29.4747907,82.7545134 32.2850526,84.0603342 35.2866576,84.6622858 C37.2909046,85.064184 39.339211,85.2859347 41.3761878,85.1350486 C42.3873929,85.0602028 43.2797279,84.7773413 44.2594622,84.5524057 C45.2122213,84.3336409 45.744709,84.5884352 46.5530617,85.1145457 C50.3081701,87.5589786 54.3457973,88.5047034 58.6817686,88.1412234 C62.3412055,87.8342759 66.5590261,86.9413014 69.5442662,84.4166481 C72.8595012,81.6127164 72.7935022,77.7462127 72.0133835,73.6151609 C72.8398993,74.0276092 75.1264854,74.2830006 73.7601086,72.6389802 C73.218809,71.9878613 72.1960945,71.722915 71.5015766,71.3399273 C70.6928643,70.8940372 69.8717434,70.3177642 69.243764,69.590406 C66.7081082,66.6535035 69.2691206,60.6765863 72.4561341,59.6916471 C77.1911566,58.2283713 78.2512765,64.9710648 81.6314315,66.7152115 C83.5748948,67.718066 85.6079152,66.3473522 87.064029,64.947775 C89.0145058,63.0728472 90.3438368,60.5890008 91.4915358,58.0613616 C92.4369218,55.9798115 93.3166684,53.8689999 94.2802176,51.7978008 C94.7301616,50.8305777 96.2878815,48.0963163 95.5056047,47.0026913 C98.8970893,46.3217137 102.674497,47.7407986 105.595357,49.6017923 C106.802581,50.3711517 107.72297,51.2193381 108.366954,52.5775112 C108.504887,52.8685341 108.805209,53.7336404 109.182321,53.7690727 C109.884391,53.83516 109.622014,52.971248 109.552778,52.5601932" id="hair" fill="#191847"></path>
                </g>
                <g id="Bottom/Standing/Skirt" transform="translate(-0.076187, 235.000000)">
                    <path d="M113.270221,114.209563 C141.166119,122.022226 165.233857,125.928557 185.473434,125.928557 C205.713012,125.928557 224.512467,119.912876 241.8718,107.881513 C214.573127,99.862526 192.091453,95.8530323 174.426779,95.8530323 C156.762105,95.8530323 136.376586,101.971876 113.270221,114.209563 Z" id="Skirt-Shadow" fill="#1F28CF"></path>
                    <path d="M209.622423,137.189613 C209.35344,136.784717 209.126283,136.344271 208.946107,135.867164 C205.217334,125.993341 145.491568,19.4744967 139.541423,0 L206.784211,0 C211.30819,14.8067349 231.67018,107.726055 234.535783,126.264829 C243.577285,155.507738 262.192835,250.214842 264.569263,256.77586 C267.069225,263.677941 253.002769,270.868124 249.254389,262.382872 C243.290084,248.881404 229.078932,211.523083 222.751294,188.712353 C216.819147,167.327343 211.988796,148.088199 209.622423,137.189613 Z" id="Leg" fill="#D4A181"></path>
                    <path d="M154.60848,150.194631 C127.302842,157.10495 27.4245744,169.597584 20.5704903,171.557022 C13.5197761,173.572673 7.33764889,159.020673 16.0527124,155.868463 C29.91985,150.852766 68.1300905,139.263781 91.2970976,134.534545 C109.931235,130.730635 126.935114,127.626648 138.351071,125.808988 C137.383938,93.6998357 132.962924,16.6427937 135.860655,1.42108547e-14 L195.357992,1.42108547e-14 C192.579263,15.9593201 169.08945,132.408048 164.723533,144.064236 C163.338005,148.225574 159.203878,150.064578 154.60848,150.194631 L154.60848,150.194631 Z" id="Leg" fill="#D4A181"></path>
                    <g id="Accessories/Shoe/Flat-Sneaker" transform="translate(28.489707, 182.804092) rotate(80.000000) translate(-28.489707, -182.804092) translate(-6.977071, 159.516947)" fill="#E4E4E4">
                        <path d="M3.18891159,29.4032226 C1.8342787,33.0101612 1.15696225,35.6987257 1.15696225,37.468916 C1.15696225,39.5734408 1.50453014,42.6444658 2.19966593,46.6819911 C4.61995986,46.6819911 26.371549,46.6819911 67.4544333,46.6819911 C69.1501733,41.0270599 68.1712938,37.9741445 64.5177947,37.5232449 C60.8642956,37.0723453 57.8292718,36.6652191 55.4127234,36.3018662 L24.9805096,22.6167447 C24.4552048,22.3805193 23.8378627,22.6148645 23.6016373,23.1401693 C23.5966997,23.1511494 23.5919526,23.1622141 23.5873981,23.1733585 L21.5926329,28.0543537 L21.5926329,28.0543537 C18.2104483,29.6461596 15.4620722,30.4420625 13.3475045,30.4420625 C11.5911246,30.4420625 9.1506137,29.7105628 6.02597176,28.2475635 L6.0259652,28.2475776 C4.98271394,27.7591133 3.74101319,28.2088571 3.25254895,29.2521083 C3.22936403,29.3016262 3.20813518,29.3520365 3.18891159,29.4032226 Z" id="shoe"></path>
                    </g>
                    <g id="Accessories/Shoe/Flat-Sneaker" transform="translate(241.871800, 231.707098)" fill="#E4E4E4">
                        <path d="M3.18891159,29.4032226 C1.8342787,33.0101612 1.15696225,35.6987257 1.15696225,37.468916 C1.15696225,39.5734408 1.50453014,42.6444658 2.19966593,46.6819911 C4.61995986,46.6819911 26.371549,46.6819911 67.4544333,46.6819911 C69.1501733,41.0270599 68.1712938,37.9741445 64.5177947,37.5232449 C60.8642956,37.0723453 57.8292718,36.6652191 55.4127234,36.3018662 L24.9805096,22.6167447 C24.4552048,22.3805193 23.8378627,22.6148645 23.6016373,23.1401693 C23.5966997,23.1511494 23.5919526,23.1622141 23.5873981,23.1733585 L21.5926329,28.0543537 L21.5926329,28.0543537 C18.2104483,29.6461596 15.4620722,30.4420625 13.3475045,30.4420625 C11.5911246,30.4420625 9.1506137,29.7105628 6.02597176,28.2475635 L6.0259652,28.2475776 C4.98271394,27.7591133 3.74101319,28.2088571 3.25254895,29.2521083 C3.22936403,29.3016262 3.20813518,29.3520365 3.18891159,29.4032226 Z" id="shoe"></path>
                    </g>
                    <path d="M136.052888,3.55271368e-15 C162.271372,-7.51096497 187.078736,-7.51096497 210.47498,3.55271368e-15 C218.614896,37.1866235 238.39366,51.9460232 241.8718,108.959303 C202.335064,128.62972 153.495566,94.9305809 112.795984,114.113197 C101.167532,87.2815107 117.447365,22.6636533 136.052888,3.55271368e-15 Z" id="Skirt" fill="#2B44FF"></path>
                </g>
                <g id="Body/Pointing-Forward" transform="translate(173.316365, 222.747387) rotate(-10.000000) translate(-173.316365, -222.747387) translate(24.427139, 113.990830)">
                    <path d="M277.675046,54.1070073 C282.718335,53.0670186 295.027562,43.8970788 297.148503,45.7589231 C300.286299,48.5134017 297.488447,56.9712472 294.191914,61.1785725 C288.030696,69.0420581 282.929474,71.731133 270.321012,75.2524926 C263.728656,77.0936413 256.601154,80.7840652 248.938506,86.3237643 L247.92791,68.4849987 L265.67457,58.7198167 C268.164677,49.2290153 271.141297,44.4538723 274.60443,44.3943875 C277.264836,43.1544821 272.631758,55.146996 277.675046,54.1070073 Z M247.130352,13.4562862 C243.871764,19.2495126 240.704332,25.4899103 242.364454,27.2746779 C244.024576,29.0594456 248.164239,26.5662038 250.14474,29.5316105 C251.465074,31.5085483 244.392786,34.6315534 228.927877,38.9006259 L199.57125,65.8241761 L184.651632,49.7843609 L225.053151,27.6200518 C231.771676,19.6285983 238.391295,13.422115 244.912007,9.00060184 C246.904527,8.16738319 250.38894,7.66305974 247.130352,13.4562862 Z" id="Skin" fill="#D4A181"></path>
                    <path d="M166.28524,40.5228529 C180.285653,42.5886908 199.392345,42.583814 221.2823,33.0891258 L226.329282,51.7720392 C210.451771,63.2355861 189.388829,71.3844242 172.598507,68.2387755 C159.366808,65.759831 155.124512,48.5808876 166.28524,40.5228529 Z" id="Sleeve" fill="#2026A2" transform="translate(193.101778, 51.004147) rotate(-9.000000) translate(-193.101778, -51.004147) "></path>
                    <path d="M165.918187,-1.42108547e-13 C167.70016,22.9318668 176.669224,48.2047388 184.030026,73.1725247 C199.052174,76.9266991 224.245666,72.5011063 259.609543,59.8964634 C268.381,78.073017 272.435825,91.0315057 271.774017,98.7719294 C241.43461,114.646244 215.431585,121.722845 194.009167,122.188649 C194.6973,134.916133 193.150539,147.032517 187.952557,158.103503 C177.268083,180.859961 114.704555,159.784943 93.6687794,163.933022 C80.4955582,121.080642 105.96638,103.665609 105.986874,76.2461588 C106.009317,46.2189392 130.079987,-1.42108547e-13 133.621504,-1.42108547e-13 L133.621504,-1.42108547e-13 Z" id="Clothes" fill="#1F28CF"></path>
                </g>
            </g>
        </g>
    </g>
</svg>