<?xml version="1.0" encoding="UTF-8"?>
<svg width="1030px" height="997px" viewBox="0 0 1030 997" version="1.1" xmlns="http://www.w3.org/2000/svg" xmlns:xlink="http://www.w3.org/1999/xlink">
    <!-- Generator: Sketch 59 (86127) - https://sketch.com -->
    <title>peopleSkyStar</title>
    <desc>Created with Sketch.</desc>
    <defs>
        <linearGradient x1="50%" y1="0%" x2="50%" y2="98.9046664%" id="linearGradient-1">
            <stop stop-color="#04142C" offset="0%"></stop>
            <stop stop-color="#030A18" offset="100%"></stop>
        </linearGradient>
        <filter x="-15.0%" y="-15.2%" width="130.1%" height="130.5%" filterUnits="objectBoundingBox" id="filter-2">
            <feGaussianBlur stdDeviation="6" in="SourceGraphic"></feGaussianBlur>
        </filter>
    </defs>
    <g id="Desktop" stroke="none" stroke-width="1" fill="none" fill-rule="evenodd">
        <g id="Desktop-HD-Copy-2" transform="translate(-890.000000, 0.000000)">
            <g id="peopleSkyStar" transform="translate(890.000000, 0.000000)">
                <g id="Sky-with-Stars">
                    <g>
                        <path d="M26.5317387,0 C-5.32907052e-14,56.5590284 -6.63293468,118.68489 6.63293468,186.377586 C26.5317387,287.916629 116.787029,354.718631 160.137994,441.561233 C203.48896,528.403836 214.149034,653.9916 284.50552,736.158062 C354.862006,818.324524 455.28574,856.619447 603.597056,893.142767 C751.908372,929.666086 872.230911,913.851387 921.977921,893.142767 C955.142594,879.33702 991.149954,851.280179 1030,808.972244 L1030,0 L26.5317387,0 Z" id="Path" fill="url(#linearGradient-1)"></path>
                        <g id="Stars" transform="translate(114.000000, 14.000000)" fill="#FFFFFF" fill-rule="nonzero">
                            <circle id="Ellipse_23" opacity="0.853" cx="685.5" cy="856.5" r="4.5"></circle>
                            <circle id="Ellipse_22" opacity="0.853" cx="911.5" cy="606.5" r="4.5"></circle>
                            <circle id="Ellipse_21" opacity="0.957" cx="899" cy="474" r="4"></circle>
                            <circle id="Ellipse_20" opacity="0.993" cx="715.5" cy="60.5" r="4.5"></circle>
                            <circle id="Ellipse_19" opacity="0.841" cx="631" cy="895" r="3"></circle>
                            <circle id="Ellipse_18" opacity="0.903" cx="663" cy="638" r="4"></circle>
                            <circle id="Ellipse_17" opacity="0.814" cx="615.5" cy="299.5" r="4.5"></circle>
                            <circle id="Ellipse_16" opacity="0.884" cx="670.5" cy="86.5" r="2.5"></circle>
                            <circle id="Ellipse_15" opacity="0.887" cx="330.5" cy="793.5" r="3.5"></circle>
                            <circle id="Ellipse_14" opacity="0.985" cx="372.5" cy="581.5" r="4.5"></circle>
                            <circle id="Ellipse_13" opacity="0.894" cx="251" cy="365" r="3"></circle>
                            <circle id="Ellipse_12" opacity="0.985" cx="209" cy="3" r="3"></circle>
                            <circle id="Ellipse_11" opacity="0.876" cx="103" cy="248" r="3"></circle>
                            <circle id="Ellipse_10" opacity="0.833" cx="104.5" cy="566.5" r="3.5"></circle>
                            <circle id="Ellipse_9" opacity="0.876" cx="3" cy="118" r="3"></circle>
                        </g>
                    </g>
                </g>
                <g id="People" transform="translate(75.672199, 330.000000)">
                    <g transform="translate(0.000000, 0.000000)">
                        <g id="Group-2" transform="translate(304.460581, 57.000000)" stroke="#FFFFFF">
                            <ellipse id="Oval" stroke-width="10" filter="url(#filter-2)" cx="76.3672199" cy="75.5" rx="76.5" ry="75.5"></ellipse>
                            <ellipse id="Oval-Copy" stroke-width="7" cx="76.3672199" cy="75.5" rx="76.5" ry="75.5"></ellipse>
                        </g>
                        <g id="A-Human/Standing" transform="translate(639.224066, 333.500000) scale(-1, 1) translate(-639.224066, -333.500000) translate(403.975104, 0.000000)">
                            <g id="Head/Front/Short-Beard" transform="translate(128.466667, 0.000000)">
                                <g id="Head" stroke-width="1" transform="translate(84.573529, 48.586538)" fill="#D4A181">
                                    <path d="M59.7392038,14.3156833 C68.8149,31.2443646 67.7364714,74.1853685 56.0069426,77.210996 C51.3292742,78.4175988 41.3645079,75.4619509 31.2226453,69.3446431 L37.5882353,114.413462 L0,114.413462 L12.9397465,54.056133 C5.72318434,45.5790491 0.838914914,35.1903345 1.65509823,23.5495095 C4.0067966,-9.99161879 50.6635076,-2.61299792 59.7392038,14.3156833 Z"></path>
                                </g>
                                <path d="M123.934768,46.4245492 C134.481248,47.3298143 143.898749,50.5480448 146.567744,52.4592726 C146.567744,62.4512107 144.633061,65.4157894 128.108232,65.1544727 C124.04782,67.3004025 120.926379,70.9956885 117.675162,75.8403188 C119.113523,95.8962791 122.91967,105.92601 129.093335,105.92601 C138.353833,105.92601 146.210708,100.042887 150.273993,100.042887 C153.235989,100.042887 152.574666,103.752228 150.6113,106.502441 C148.99146,108.771455 141.102974,110.958513 141.102974,114.476247 C141.102974,117.993981 147.335532,115.272504 147.335532,117.358803 C147.335532,120.809797 148.430895,127.298282 142.445667,127.298282 C136.388417,127.298282 119.021209,125.089309 116.04494,116.092788 C114.124198,110.286863 112.882281,98.2560806 112.319188,80.0004395 C111.95171,79.9551707 111.577743,79.9326923 111.198529,79.9326923 C106.008677,79.9326923 101.801471,84.1429376 101.801471,89.3365385 C101.801471,91.9730921 102.885722,94.3562224 104.632358,96.0637584 C102.458006,99.1350581 100.021181,102.343442 97.2288403,105.654077 C86.7386202,99.3558258 78.9542803,80.9184839 89.2101731,63.2068209 C92.0449342,54.5301525 98.4624365,49.8956178 106.041661,47.7436546 C112.181224,45.1736011 118.554671,44.8838253 123.934768,46.4245492 Z" id="Hair" fill="#191847"></path>
                            </g>
                            <g id="Bottom/Standing/Skinny-Jeans-Walk" transform="translate(0.000000, 292.791080)">
                                <polygon id="Leg" fill="#1F28CF" points="200.533333 0 275.861235 199.091481 328.660549 345.832636 358.766667 345.832636 286.188777 1.53580542e-13"></polygon>
                                <path d="M181.91605,0 C181.097233,68.3124126 181.689205,160.283988 179.781377,164.542237 C178.509493,167.381069 138.949034,199.725866 61.1,261.576628 L76.6178024,287.933054 C169.04252,228.399448 217.617519,194.666748 222.342802,186.734957 C229.430725,174.83727 265.039894,65.3531934 283.566667,0 L181.91605,0 Z" id="Leg" fill="#2B44FF"></path>
                                <g id="Accessories/Shoe/Flat-Pointy" transform="translate(88.516667, 295.757322) rotate(50.000000) translate(-88.516667, -295.757322) translate(40.733333, 264.460251)" fill="#191847">
                                    <path d="M0,63 L1.57377049,29.925 L34.6229508,29.925 C50.293933,40.95 70.7529494,49.875 96,56.7 L96,63 L36.1967213,63 L15.7377049,59.85 L15.7377049,63 L0,63 Z" id="Shoe"></path>
                                </g>
                                <g id="Accessories/Shoe/Flat-Pointy" transform="translate(325.866667, 311.405858)" fill="#191847">
                                    <path d="M0,63 L1.57377049,29.925 L34.6229508,29.925 C50.293933,40.95 70.7529494,49.875 96,56.7 L96,63 L36.1967213,63 L15.7377049,59.85 L15.7377049,63 L0,63 Z" id="Shoe"></path>
                                </g>
                            </g>
                            <g id="Body/Pointing-Up" transform="translate(34.466667, 128.389671)">
                                <path d="M294.651754,108.375726 L344.617405,145.076872 C358.169118,148.734637 369.491137,153.285515 378.58346,158.729506 C380.731225,160.68713 383.327,164.651643 374.4197,163.966476 C365.512401,163.281309 356.112452,162.961322 354.883418,166.000315 C353.654383,169.039308 359.044599,172.673611 356.560185,176.774008 C354.90391,179.507606 347.078998,172.65321 333.08545,156.210819 L283.606348,135.687339 L294.651754,108.375726 Z M392.288122,-26.6003007 C386.380529,-19.8969664 380.468018,-12.5803041 382.154735,-9.76956713 C383.841451,-6.95883021 389.987034,-9.0776753 391.765683,-4.62529806 C392.951449,-1.65704657 382.769668,0.468877291 361.22034,1.75247353 L315.056882,28.9279691 L299.898255,3.66770614 L359.270967,-14.1605109 C370.346995,-22.7851232 380.794231,-29.0910348 390.612675,-33.0782458 C393.468222,-33.6158796 398.195714,-33.3036349 392.288122,-26.6003007 Z" id="Skin" fill="#D4A181"></path>
                                <path d="M198.904434,24.5172965 C238.321806,66.4950892 286.396088,93.8890145 351.960886,118.188857 L337.403359,147.30845 C269.756869,140.924113 233.59172,135.82644 205.237578,93.7846784 C198.121263,83.2330487 185.39565,46.9276946 177.772274,28.074198 L198.904434,24.5172965 Z" id="Coat-Back" fill="#69A1AC" transform="translate(264.866580, 85.912873) rotate(15.000000) translate(-264.866580, -85.912873) "></path>
                                <path d="M140.976562,178.620321 L261.589844,178.620321 C234.268916,95.2726024 220.312349,38.0679099 219.720142,7.00624339 C219.689951,5.42268961 216.766155,2.63224419 215.472604,2.99767786 C206.013003,5.67005488 195.890484,4.67082892 185.105046,0 C156.511373,46.0000706 146.623185,102.635471 140.976562,178.620321 Z" id="Shirt" fill="#F2F2F2"></path>
                                <path d="M350.753878,-14.1016043 L357.140625,17.8204799 C308.247265,49.2750675 258.738631,73.6411307 215.356963,70.1799772 C234.197241,151.006956 233.329027,217.174054 191.73983,217.174054 L191.73983,217.174054 L127.428914,217.174054 C117.214856,148.511746 144.059399,53.3097286 168.946242,5.2905996 C169.896596,3.4568937 171.919994,-5.77315973e-13 176.685927,-5.77315973e-13 L176.685927,-5.77315973e-13 L195.372782,-5.77315973e-13 C195.381081,0.0249975691 195.38938,0.0499951168 195.397678,0.0749926418 C229.969161,0.357266944 286.062465,6.67294636 350.753878,-14.1016043 Z" id="Coat-Front" fill="#89C5CC"></path>
                            </g>
                        </g>
                        <g id="humaaan-11" transform="translate(0.000000, 25.000000)">
                            <g id="Head/Front/Wavy" transform="translate(179.635234, 98.985234) rotate(-15.000000) translate(-179.635234, -98.985234) translate(80.706284, 23.290643)">
                                <g id="Head" stroke-width="1" transform="translate(78.525628, 45.201797)" fill="#D4A181">
                                    <path d="M55.4672192,13.3183929 C63.8939072,29.0677513 62.8925976,69.0173051 52.0018542,71.8321547 C47.6586318,72.9547152 38.4062669,70.2048837 28.9895276,64.5135822 L34.9002791,106.442941 L0,106.442941 L12.0135815,50.289372 C5.31353877,42.4030174 0.778955161,32.7383778 1.53674121,21.908952 C3.72026828,-9.29556079 47.0405312,-2.43096555 55.4672192,13.3183929 Z"></path>
                                </g>
                                <path d="M137.287659,65.591646 C136.941954,63.550202 136.097075,61.2832006 135.415357,59.3518028 C134.536448,56.8619764 133.206366,54.6170835 131.742644,52.5013646 C128.986927,48.5180895 125.681102,44.921094 122.031151,41.9356871 C115.364063,36.4825624 106.877183,33.3371786 98.5313791,34.3586458 C94.3175741,34.8743477 90.2270416,36.4860401 86.7454353,39.1686337 C83.5998427,41.5923827 80.5741422,45.160314 76.5009626,45.4166745 C72.0690078,45.695392 68.0064202,41.7729777 64.4520222,39.3504707 C60.4444227,36.619437 56.1810381,34.6294141 51.4971295,33.8558614 C43.6505007,32.5603965 36.2791588,35.2186457 30.8713897,41.6738616 C25.1167897,48.543179 20.9336337,58.6170022 24.7127169,67.7187919 C25.415168,69.4107212 26.3188667,70.8370989 27.6158208,72.0192882 C28.8052776,73.1033551 30.6219148,74.2567287 31.1041879,75.9889007 C31.6164341,77.8301252 30.0862311,80.2054339 29.4928548,81.8668087 C28.6427921,84.2470857 27.9448483,86.7456064 28.192971,89.33281 C28.6006496,93.5816368 31.2635184,97.6376964 34.0753509,100.430336 C36.936763,103.272161 40.4584836,104.901739 44.2199886,105.652935 C46.73164,106.154478 49.2985049,106.431208 51.851172,106.242912 C53.1183784,106.149509 54.2366211,105.796517 55.4643893,105.515812 C56.6583533,105.242808 57.325648,105.560775 58.338647,106.217326 C63.0444157,109.267816 68.104227,110.448018 73.5379126,109.994419 C78.1237891,109.611369 83.4094124,108.496996 87.1504095,105.346396 C91.3049446,101.847274 91.222237,97.0221332 90.2446198,91.8668536 C91.2803802,92.3815618 94.1458488,92.7002735 92.4335538,90.6486447 C91.7552164,89.8360913 90.4735868,89.5054559 89.6032416,89.0275126 C88.589792,88.4710713 87.5607924,87.7519206 86.7738308,86.8442257 C83.5962369,83.1791655 86.8056068,75.720368 90.7994592,74.491229 C96.7332215,72.6651576 98.0617262,81.0795933 102.297617,83.256173 C104.733096,84.5076691 107.280805,82.7971089 109.105555,81.0505291 C111.549824,78.7107432 113.215694,75.6110671 114.65395,72.4567405 C115.838674,69.8591036 116.941141,67.2249503 118.148627,64.6402308 C118.712481,63.4332003 120.66456,60.0210228 119.684239,58.6562511 C123.934327,57.8064361 128.668041,59.5773602 132.328358,61.8997574 C133.841209,62.859867 134.994608,63.9183476 135.801626,65.6132578 C135.974478,65.9764351 136.350832,67.0560306 136.823414,67.1002478 C137.703225,67.1827203 137.374423,66.1046153 137.287659,65.591646" id="hair" fill="#191847"></path>
                            </g>
                            <g id="Bottom/Standing/Skirt" transform="translate(0.327801, 294.000000)">
                                <path d="M141.506637,142.967366 C176.356527,152.747247 206.423959,157.637187 231.708932,157.637187 C256.993906,157.637187 280.479758,150.106766 302.16649,135.045923 C268.062703,125.007766 239.976715,119.988688 217.908526,119.988688 C195.840338,119.988688 170.373041,127.648247 141.506637,142.967366 Z" id="Skirt-Shadow" fill="#1F28CF"></path>
                                <path d="M261.87787,171.73376 C261.541833,171.226911 261.25805,170.675562 261.032959,170.07832 C256.374664,157.718283 181.76024,24.378147 174.326821,0 L258.332137,0 C263.983871,18.5350494 289.421772,134.851321 293.001723,158.058132 C304.297124,194.664362 327.553226,313.218579 330.522059,321.431652 C333.645221,330.071667 316.072227,339.072328 311.389437,328.450502 C303.938329,311.549383 286.184568,264.784291 278.279554,236.229852 C270.86862,209.460127 264.83414,185.376595 261.87787,171.73376 Z" id="Leg" fill="#D4A181"></path>
                                <path d="M193.149849,188.013424 C159.037361,196.663751 34.2610729,212.302012 25.6983776,214.754834 C16.8900355,217.278022 9.16680492,199.06185 20.0543914,195.115918 C37.3783799,188.837275 85.1138094,174.330201 114.055973,168.41015 C137.335297,163.64842 158.577965,159.762855 172.839733,157.487511 C171.631509,117.29332 166.108409,20.8334253 169.728497,1.42108547e-14 L244.057549,1.42108547e-14 C240.586129,19.977854 211.240689,165.748203 205.78642,180.339403 C204.055502,185.54856 198.890805,187.850622 193.149849,188.013424 L193.149849,188.013424 Z" id="Leg" fill="#D4A181"></path>
                                <g id="Accessories/Shoe/Flat-Sneaker" transform="translate(35.591726, 228.833900) rotate(80.000000) translate(-35.591726, -228.833900) translate(-8.716341, 199.683085)" fill="#E4E4E4">
                                    <path d="M4.20388945,35.7486523 C2.36814756,40.4703837 1.45027662,43.9669118 1.45027662,46.2382368 C1.45027662,48.8353099 1.88596032,52.6250855 2.75732771,57.6075635 C5.79121729,57.6075635 33.0572938,57.6075635 84.5555572,57.6075635 C86.6812032,50.6291377 85.4541571,46.8617102 80.8744187,46.3052809 C76.2946804,45.7488517 72.490214,45.2464406 69.4610194,44.7980477 L31.055386,27.7957144 C30.5287135,27.5625543 29.9127475,27.8004931 29.6795874,28.3271656 C29.6763101,28.3345685 29.6731191,28.3420094 29.6700151,28.3494866 L27.0668216,34.6202663 L27.0668216,34.6202663 C22.8271817,36.5846224 19.3820342,37.5668005 16.7313789,37.5668005 C14.4340491,37.5668005 11.2029978,36.5839427 7.03822485,34.618227 L7.03823337,34.6182089 C5.99647874,34.126515 4.75337309,34.5724274 4.26167919,35.614182 C4.24084875,35.6583156 4.22157364,35.7031666 4.20388945,35.7486523 Z" id="shoe"></path>
                                </g>
                                <g id="Accessories/Shoe/Flat-Sneaker" transform="translate(302.166490, 290.050612)" fill="#E4E4E4">
                                    <path d="M4.20388945,35.7486523 C2.36814756,40.4703837 1.45027662,43.9669118 1.45027662,46.2382368 C1.45027662,48.8353099 1.88596032,52.6250855 2.75732771,57.6075635 C5.79121729,57.6075635 33.0572938,57.6075635 84.5555572,57.6075635 C86.6812032,50.6291377 85.4541571,46.8617102 80.8744187,46.3052809 C76.2946804,45.7488517 72.490214,45.2464406 69.4610194,44.7980477 L31.055386,27.7957144 C30.5287135,27.5625543 29.9127475,27.8004931 29.6795874,28.3271656 C29.6763101,28.3345685 29.6731191,28.3420094 29.6700151,28.3494866 L27.0668216,34.6202663 L27.0668216,34.6202663 C22.8271817,36.5846224 19.3820342,37.5668005 16.7313789,37.5668005 C14.4340491,37.5668005 11.2029978,36.5839427 7.03822485,34.618227 L7.03823337,34.6182089 C5.99647874,34.126515 4.75337309,34.5724274 4.26167919,35.614182 C4.24084875,35.6583156 4.22157364,35.7031666 4.20388945,35.7486523 Z" id="shoe"></path>
                                </g>
                                <path d="M169.96865,6.21724894e-15 C202.722974,-9.40221514 233.714409,-9.40221514 262.942955,6.21724894e-15 C273.11202,46.5501618 297.821306,65.0259571 302.16649,136.395099 C252.77389,161.018499 191.759503,118.833965 140.91418,142.846736 C126.386945,109.25887 146.725074,28.3703286 169.96865,6.21724894e-15 Z" id="Skirt" fill="#2B44FF"></path>
                            </g>
                            <g id="Body/Pointing-Forward" transform="translate(217.461008, 278.759888) rotate(-10.000000) translate(-217.461008, -278.759888) translate(31.241810, 142.655191)">
                                <path d="M346.62791,67.5096605 C352.923559,66.2120599 368.28944,54.7706671 370.937057,57.0937022 C374.854037,60.5304828 371.361417,71.083391 367.246281,76.3328978 C359.555098,86.1442193 353.187129,89.4993953 337.447706,93.8930183 C329.218323,96.1902313 320.320904,100.794797 310.75545,107.706715 L309.493901,85.4491727 L331.647449,73.2650923 C334.755906,61.4233586 338.471687,55.4653819 342.794792,55.3911624 C346.115836,53.8441245 340.332261,68.807261 346.62791,67.5096605 Z M308.498291,16.7894947 C304.430524,24.0177405 300.476548,31.8039247 302.548915,34.0307908 C304.621283,36.2576569 309.788916,33.1468231 312.261219,36.8467801 C313.909421,39.3134181 305.080928,43.2100116 285.775739,48.5365607 L249.129211,82.1292472 L230.504721,62.1162668 L280.938833,34.461716 C289.325716,24.4907282 297.589133,16.7468591 305.729083,11.2301087 C308.216389,10.1904965 312.566059,9.56124885 308.498291,16.7894947 Z" id="Skin" fill="#D4A181"></path>
                                <path d="M207.577067,50.5578861 C225.054078,53.1368085 248.905097,53.1325412 276.22958,41.2878973 L282.53154,64.5994499 C262.712622,78.9012533 236.420377,89.0667298 215.460601,85.1402391 C198.943141,82.0459479 193.645818,60.6110075 207.577067,50.5578861 Z" id="Sleeve" fill="#2026A2" transform="translate(241.053464, 63.638902) rotate(-9.000000) translate(-241.053464, -63.638902) "></path>
                                <path d="M207.119348,-1.42108547e-13 C209.343836,28.6123981 220.540231,60.1457161 229.728913,91.2983535 C248.481392,95.9819092 279.93094,90.4600571 324.076343,74.7332021 C335.025947,97.4122047 340.087674,113.580594 339.261525,123.238371 C301.387639,143.045134 268.927106,151.874623 242.184812,152.455587 L242.194222,152.448778 C243.044873,168.336339 241.113964,183.453696 234.62534,197.266756 C221.287675,225.660134 143.188236,199.3647 116.928812,204.540284 C100.484388,151.073095 132.280179,129.344246 132.305762,95.132822 C132.333779,57.6676673 162.381729,-1.42108547e-13 166.802683,-1.42108547e-13 L166.802683,-1.42108547e-13 Z" id="Clothes" fill="#1F28CF"></path>
                            </g>
                        </g>
                    </g>
                </g>
            </g>
        </g>
    </g>
</svg>