<svg xmlns="http://www.w3.org/2000/svg" width="908.052" height="792.096" viewBox="0 0 908.052 792.096">
  <g id="Stars" transform="translate(-197.884 -67.015)">
    <circle id="Ellipse_23" data-name="Ellipse 23" cx="3.547" cy="3.547" r="3.547" transform="translate(901.941 819.499)" fill="#fff" opacity="0.853"/>
    <circle id="Ellipse_22" data-name="Ellipse 22" cx="3.522" cy="3.522" r="3.522" transform="translate(1098.682 602.988)" fill="#fff" opacity="0.853"/>
    <circle id="Ellipse_21" data-name="Ellipse 21" cx="3.149" cy="3.149" r="3.149" transform="translate(1087.675 487.281)" fill="#fff" opacity="0.957"/>
    <circle id="Ellipse_20" data-name="Ellipse 20" cx="3.927" cy="3.927" r="3.927" transform="translate(927.611 127.994)" fill="#fff" opacity="0.993"/>
    <circle id="Ellipse_19" data-name="Ellipse 19" cx="2.69" cy="2.69" r="2.69" transform="translate(855.587 853.731)" fill="#fff" opacity="0.841"/>
    <circle id="Ellipse_18" data-name="Ellipse 18" cx="3.341" cy="3.341" r="3.341" transform="translate(883.1 629.771)" fill="#fff" opacity="0.903"/>
    <circle id="Ellipse_17" data-name="Ellipse 17" cx="3.654" cy="3.654" r="3.654" transform="translate(841.101 335.535)" fill="#fff" opacity="0.814"/>
    <circle id="Ellipse_16" data-name="Ellipse 16" cx="2.155" cy="2.155" r="2.155" transform="translate(890.252 152.338)" fill="#fff" opacity="0.884"/>
    <circle id="Ellipse_15" data-name="Ellipse 15" cx="3.018" cy="3.018" r="3.018" transform="translate(593.865 765.44)" fill="#fff" opacity="0.887"/>
    <circle id="Ellipse_14" data-name="Ellipse 14" cx="3.799" cy="3.799" r="3.799" transform="translate(629.735 579.867)" fill="#fff" opacity="0.985"/>
    <circle id="Ellipse_13" data-name="Ellipse 13" cx="2.437" cy="2.437" r="2.437" transform="translate(526.278 394.379)" fill="#fff" opacity="0.894"/>
    <circle id="Ellipse_12" data-name="Ellipse 12" cx="2.612" cy="2.612" r="2.612" transform="translate(489.485 79.167)" fill="#fff" opacity="0.985"/>
    <circle id="Ellipse_11" data-name="Ellipse 11" cx="2.64" cy="2.64" r="2.64" transform="translate(396.215 292.209)" fill="#fff" opacity="0.876"/>
    <circle id="Ellipse_10" data-name="Ellipse 10" cx="2.964" cy="2.964" r="2.964" transform="translate(397.857 568.641)" fill="#fff" opacity="0.833"/>
    <circle id="Ellipse_9" data-name="Ellipse 9" cx="2.747" cy="2.747" r="2.747" transform="translate(278.022 488.142)" fill="#fff" opacity="0.895"/>
    <circle id="Ellipse_8" data-name="Ellipse 8" cx="2.678" cy="2.678" r="2.678" transform="translate(230.312 67.015)" fill="#fff" opacity="0.905"/>
    <circle id="Ellipse_4" data-name="Ellipse 4" cx="3.411" cy="3.411" r="3.411" transform="translate(198.085 206.811)" fill="#fff" opacity="0.988"/>
  </g>
</svg>
